<svg width="108" height="40" viewBox="0 0 108 40" fill="none" xmlns="http://www.w3.org/2000/svg">
<path d="M21.2734 20.5859C22.0026 21.3151 22.888 21.6797 23.9297 21.6797C24.9714 21.6797 25.8568 21.3151 26.5859 20.5859C27.3151 19.8568 27.6797 18.9714 27.6797 17.9297C27.6797 16.888 27.3151 16.0026 26.5859 15.2734C25.8568 14.5443 24.9714 14.1797 23.9297 14.1797C22.888 14.1797 22.0026 14.5443 21.2734 15.2734C20.5443 16.0026 20.1797 16.888 20.1797 17.9297C20.1797 18.9714 20.5443 19.8568 21.2734 20.5859ZM28.9297 21.6797L33.0703 25.8203L31.8203 27.0703L27.6797 22.9297V22.2656L27.4453 22.0312C26.4557 22.8906 25.2839 23.3203 23.9297 23.3203C22.4193 23.3203 21.1302 22.7995 20.0625 21.7578C19.0208 20.7161 18.5 19.4401 18.5 17.9297C18.5 16.4193 19.0208 15.1432 20.0625 14.1016C21.1302 13.0339 22.4193 12.5 23.9297 12.5C25.4401 12.5 26.7161 13.0339 27.7578 14.1016C28.7995 15.1432 29.3203 16.4193 29.3203 17.9297C29.3203 18.4766 29.1901 19.1016 28.9297 19.8047C28.6693 20.4818 28.3698 21.0286 28.0312 21.4453L28.2656 21.6797H28.9297Z" fill="#2A2C1F"/>
<path d="M47.3828 22.125C47.3828 21.8594 47.3411 21.625 47.2578 21.4219C47.1797 21.2135 47.0391 21.026 46.8359 20.8594C46.638 20.6927 46.362 20.5339 46.0078 20.3828C45.6589 20.2318 45.2161 20.0781 44.6797 19.9219C44.1172 19.7552 43.6094 19.5703 43.1562 19.3672C42.7031 19.1589 42.3151 18.9219 41.9922 18.6562C41.6693 18.3906 41.4219 18.0859 41.25 17.7422C41.0781 17.3984 40.9922 17.0052 40.9922 16.5625C40.9922 16.1198 41.0833 15.7109 41.2656 15.3359C41.4479 14.9609 41.7083 14.6354 42.0469 14.3594C42.3906 14.0781 42.7995 13.8594 43.2734 13.7031C43.7474 13.5469 44.276 13.4688 44.8594 13.4688C45.7135 13.4688 46.4375 13.6328 47.0312 13.9609C47.6302 14.2839 48.0859 14.7083 48.3984 15.2344C48.7109 15.7552 48.8672 16.3125 48.8672 16.9062H47.3672C47.3672 16.4792 47.276 16.1016 47.0938 15.7734C46.9115 15.4401 46.6354 15.1797 46.2656 14.9922C45.8958 14.7995 45.4271 14.7031 44.8594 14.7031C44.3229 14.7031 43.8802 14.7839 43.5312 14.9453C43.1823 15.1068 42.9219 15.3255 42.75 15.6016C42.5833 15.8776 42.5 16.1927 42.5 16.5469C42.5 16.7865 42.5495 17.0052 42.6484 17.2031C42.7526 17.3958 42.9115 17.5755 43.125 17.7422C43.3438 17.9089 43.6198 18.0625 43.9531 18.2031C44.2917 18.3438 44.6953 18.4792 45.1641 18.6094C45.8099 18.7917 46.3672 18.9948 46.8359 19.2188C47.3047 19.4427 47.6901 19.6953 47.9922 19.9766C48.2995 20.2526 48.526 20.5677 48.6719 20.9219C48.8229 21.2708 48.8984 21.6667 48.8984 22.1094C48.8984 22.5729 48.8047 22.9922 48.6172 23.3672C48.4297 23.7422 48.1615 24.0625 47.8125 24.3281C47.4635 24.5938 47.0443 24.7995 46.5547 24.9453C46.0703 25.0859 45.5286 25.1562 44.9297 25.1562C44.4036 25.1562 43.8854 25.0833 43.375 24.9375C42.8698 24.7917 42.4089 24.5729 41.9922 24.2812C41.5807 23.9896 41.25 23.6302 41 23.2031C40.7552 22.7708 40.6328 22.2708 40.6328 21.7031H42.1328C42.1328 22.0938 42.2083 22.4297 42.3594 22.7109C42.5104 22.987 42.7161 23.2161 42.9766 23.3984C43.2422 23.5807 43.5417 23.7161 43.875 23.8047C44.2135 23.888 44.5651 23.9297 44.9297 23.9297C45.4557 23.9297 45.901 23.8568 46.2656 23.7109C46.6302 23.5651 46.9062 23.3568 47.0938 23.0859C47.2865 22.8151 47.3828 22.4948 47.3828 22.125ZM54.1094 25.1562C53.5208 25.1562 52.987 25.0573 52.5078 24.8594C52.0339 24.6562 51.625 24.3724 51.2812 24.0078C50.9427 23.6432 50.6823 23.2109 50.5 22.7109C50.3177 22.2109 50.2266 21.6641 50.2266 21.0703V20.7422C50.2266 20.0547 50.3281 19.4427 50.5312 18.9062C50.7344 18.3646 51.0104 17.9062 51.3594 17.5312C51.7083 17.1562 52.1042 16.8724 52.5469 16.6797C52.9896 16.487 53.4479 16.3906 53.9219 16.3906C54.526 16.3906 55.0469 16.4948 55.4844 16.7031C55.9271 16.9115 56.2891 17.2031 56.5703 17.5781C56.8516 17.9479 57.0599 18.3854 57.1953 18.8906C57.3307 19.3906 57.3984 19.9375 57.3984 20.5312V21.1797H51.0859V20H55.9531V19.8906C55.9323 19.5156 55.8542 19.151 55.7188 18.7969C55.5885 18.4427 55.3802 18.151 55.0938 17.9219C54.8073 17.6927 54.4167 17.5781 53.9219 17.5781C53.5938 17.5781 53.2917 17.6484 53.0156 17.7891C52.7396 17.9245 52.5026 18.1276 52.3047 18.3984C52.1068 18.6693 51.9531 19 51.8438 19.3906C51.7344 19.7812 51.6797 20.2318 51.6797 20.7422V21.0703C51.6797 21.4714 51.7344 21.849 51.8438 22.2031C51.9583 22.5521 52.1224 22.8594 52.3359 23.125C52.5547 23.3906 52.8177 23.599 53.125 23.75C53.4375 23.901 53.7917 23.9766 54.1875 23.9766C54.6979 23.9766 55.1302 23.8724 55.4844 23.6641C55.8385 23.4557 56.1484 23.1771 56.4141 22.8281L57.2891 23.5234C57.1068 23.7995 56.875 24.0625 56.5938 24.3125C56.3125 24.5625 55.9661 24.7656 55.5547 24.9219C55.1484 25.0781 54.6667 25.1562 54.1094 25.1562ZM64.0703 23.5547V19.2031C64.0703 18.8698 64.0026 18.5807 63.8672 18.3359C63.737 18.0859 63.5391 17.8932 63.2734 17.7578C63.0078 17.6224 62.6797 17.5547 62.2891 17.5547C61.9245 17.5547 61.6042 17.6172 61.3281 17.7422C61.0573 17.8672 60.8438 18.0312 60.6875 18.2344C60.5365 18.4375 60.4609 18.6562 60.4609 18.8906H59.0156C59.0156 18.5885 59.0938 18.2891 59.25 17.9922C59.4062 17.6953 59.6302 17.4271 59.9219 17.1875C60.2188 16.9427 60.5729 16.75 60.9844 16.6094C61.401 16.4635 61.8646 16.3906 62.375 16.3906C62.9896 16.3906 63.5312 16.4948 64 16.7031C64.474 16.9115 64.8438 17.2266 65.1094 17.6484C65.3802 18.0651 65.5156 18.5885 65.5156 19.2188V23.1562C65.5156 23.4375 65.5391 23.737 65.5859 24.0547C65.638 24.3724 65.7135 24.6458 65.8125 24.875V25H64.3047C64.2318 24.8333 64.1745 24.612 64.1328 24.3359C64.0911 24.0547 64.0703 23.7943 64.0703 23.5547ZM64.3203 19.875L64.3359 20.8906H62.875C62.4635 20.8906 62.0964 20.9245 61.7734 20.9922C61.4505 21.0547 61.1797 21.151 60.9609 21.2812C60.7422 21.4115 60.5755 21.5755 60.4609 21.7734C60.3464 21.9661 60.2891 22.1927 60.2891 22.4531C60.2891 22.7188 60.349 22.9609 60.4688 23.1797C60.5885 23.3984 60.7682 23.5729 61.0078 23.7031C61.2526 23.8281 61.5521 23.8906 61.9062 23.8906C62.349 23.8906 62.7396 23.7969 63.0781 23.6094C63.4167 23.4219 63.6849 23.1927 63.8828 22.9219C64.0859 22.651 64.1953 22.388 64.2109 22.1328L64.8281 22.8281C64.7917 23.0469 64.6927 23.2891 64.5312 23.5547C64.3698 23.8203 64.1536 24.0755 63.8828 24.3203C63.6172 24.5599 63.2995 24.7604 62.9297 24.9219C62.5651 25.0781 62.1536 25.1562 61.6953 25.1562C61.1224 25.1562 60.6198 25.0443 60.1875 24.8203C59.7604 24.5964 59.4271 24.2969 59.1875 23.9219C58.9531 23.5417 58.8359 23.1172 58.8359 22.6484C58.8359 22.1953 58.9245 21.7969 59.1016 21.4531C59.2786 21.1042 59.5339 20.8151 59.8672 20.5859C60.2005 20.3516 60.6016 20.1745 61.0703 20.0547C61.5391 19.9349 62.0625 19.875 62.6406 19.875H64.3203ZM69.2344 17.875V25H67.7891V16.5469H69.1953L69.2344 17.875ZM71.875 16.5L71.8672 17.8438C71.7474 17.8177 71.6328 17.8021 71.5234 17.7969C71.4193 17.7865 71.2995 17.7812 71.1641 17.7812C70.8307 17.7812 70.5365 17.8333 70.2812 17.9375C70.026 18.0417 69.8099 18.1875 69.6328 18.375C69.4557 18.5625 69.3151 18.7865 69.2109 19.0469C69.112 19.3021 69.0469 19.5833 69.0156 19.8906L68.6094 20.125C68.6094 19.6146 68.6589 19.1354 68.7578 18.6875C68.862 18.2396 69.0208 17.8438 69.2344 17.5C69.4479 17.151 69.7188 16.8802 70.0469 16.6875C70.3802 16.4896 70.776 16.3906 71.2344 16.3906C71.3385 16.3906 71.4583 16.4036 71.5938 16.4297C71.7292 16.4505 71.8229 16.474 71.875 16.5ZM76.4375 23.9688C76.7812 23.9688 77.099 23.8984 77.3906 23.7578C77.6823 23.6172 77.9219 23.4245 78.1094 23.1797C78.2969 22.9297 78.4036 22.6458 78.4297 22.3281H79.8047C79.7786 22.8281 79.6094 23.2943 79.2969 23.7266C78.9896 24.1536 78.5859 24.5 78.0859 24.7656C77.5859 25.026 77.0365 25.1562 76.4375 25.1562C75.8021 25.1562 75.2474 25.0443 74.7734 24.8203C74.3047 24.5964 73.9141 24.2891 73.6016 23.8984C73.2943 23.5078 73.0625 23.0599 72.9062 22.5547C72.7552 22.0443 72.6797 21.5052 72.6797 20.9375V20.6094C72.6797 20.0417 72.7552 19.5052 72.9062 19C73.0625 18.4896 73.2943 18.0391 73.6016 17.6484C73.9141 17.2578 74.3047 16.9505 74.7734 16.7266C75.2474 16.5026 75.8021 16.3906 76.4375 16.3906C77.099 16.3906 77.6771 16.526 78.1719 16.7969C78.6667 17.0625 79.0547 17.4271 79.3359 17.8906C79.6224 18.349 79.7786 18.8698 79.8047 19.4531H78.4297C78.4036 19.1042 78.3047 18.7891 78.1328 18.5078C77.9661 18.2266 77.737 18.0026 77.4453 17.8359C77.1589 17.6641 76.8229 17.5781 76.4375 17.5781C75.9948 17.5781 75.6224 17.6667 75.3203 17.8438C75.0234 18.0156 74.7865 18.25 74.6094 18.5469C74.4375 18.8385 74.3125 19.1641 74.2344 19.5234C74.1615 19.8776 74.125 20.2396 74.125 20.6094V20.9375C74.125 21.3073 74.1615 21.6719 74.2344 22.0312C74.3073 22.3906 74.4297 22.7161 74.6016 23.0078C74.7786 23.2995 75.0156 23.5339 75.3125 23.7109C75.6146 23.8828 75.9896 23.9688 76.4375 23.9688ZM82.875 13V25H81.4297V13H82.875ZM82.5312 20.4531L81.9297 20.4297C81.9349 19.8516 82.0208 19.3177 82.1875 18.8281C82.3542 18.3333 82.5885 17.9036 82.8906 17.5391C83.1927 17.1745 83.5521 16.8932 83.9688 16.6953C84.3906 16.4922 84.8568 16.3906 85.3672 16.3906C85.7839 16.3906 86.1589 16.4479 86.4922 16.5625C86.8255 16.6719 87.1094 16.849 87.3438 17.0938C87.5833 17.3385 87.7656 17.6562 87.8906 18.0469C88.0156 18.4323 88.0781 18.9036 88.0781 19.4609V25H86.625V19.4453C86.625 19.0026 86.5599 18.6484 86.4297 18.3828C86.2995 18.112 86.1094 17.9167 85.8594 17.7969C85.6094 17.6719 85.3021 17.6094 84.9375 17.6094C84.5781 17.6094 84.25 17.6849 83.9531 17.8359C83.6615 17.987 83.4089 18.1953 83.1953 18.4609C82.987 18.7266 82.8229 19.0312 82.7031 19.375C82.5885 19.7135 82.5312 20.0729 82.5312 20.4531Z" fill="#2A2C1F"/>
</svg>
